<svg viewBox="0 0 101 102" transform="scale(1.77)" id="Layer_3" data-name="Layer 3" xmlns="http://www.w3.org/2000/svg" xmlns:xlink="http://www.w3.org/1999/xlink">
    <defs>
        <style>.cls-1{fill:none;}.cls-2{fill:#012169;stroke:#707070;stroke-miterlimit:10;}.cls-3{clip-path:url(#clip-path);}.cls-4,.cls-6{fill:#fff;}.cls-5{fill:#c8102e;}.cls-6{opacity:0.2;}</style>
        <clipPath id="clip-path" transform="translate(-199.71 -199.21)">
            <circle class="cls-1" cx="250.21" cy="250.21" r="27.5"/>
        </clipPath>
    </defs>
    <circle class="cls-2" cx="50.5" cy="51" r="28"/>
    <g class="cls-3">
        <polygon class="cls-4" points="82.56 65.45 59.54 50.99 82.53 36.55 77.42 28.41 50.5 45.31 23.59 28.41 18.48 36.55 41.46 50.99 18.43 65.45 23.55 73.59 50.5 56.66 77.45 73.58 82.56 65.45"/>
            <rect class="cls-5" x="223.47" y="241.44" width="28" height="3.38" transform="translate(-36.78 -287.67) rotate(31.66)"/>
            <rect class="cls-5" x="251.94" y="257.66" width="28" height="3.38" transform="translate(-24.04 -300.2) rotate(31.66)"/>
            <rect class="cls-5" x="248.94" y="239.66" width="28" height="3.38" transform="translate(-287.26 -25.31) rotate(-31.66)"/>
            <rect class="cls-5" x="222.94" y="257.66" width="28" height="3.38" transform="translate(-300.57 -36.27) rotate(-31.66)"/>
        <polygon class="cls-4" points="101 42.5 57.5 42.5 57.5 0 43.5 0 43.5 42.5 0 42.5 0 59.5 43.5 59.5 43.5 102 57.5 102 57.5 59.5 101 59.5 101 42.5"/><polygon class="cls-5" points="80.5 46.5 55 46.5 55 21 46 21 46 46.5 20.5 46.5 20.5 55.5 46 55.5 46 81 55 81 55 55.5 80.5 55.5 80.5 46.5"/>
    </g>
    <circle class="cls-6" cx="50.29" cy="47.79" r="24"/>
</svg>