<?xml version="1.0" standalone="no"?>
<!DOCTYPE svg PUBLIC "-//W3C//DTD SVG 20010904//EN"
 "http://www.w3.org/TR/2001/REC-SVG-20010904/DTD/svg10.dtd">
<svg version="1.0" xmlns="http://www.w3.org/2000/svg"
 width="260.000000pt" height="260.000000pt" viewBox="0 0 260.000000 260.000000"
 preserveAspectRatio="xMidYMid meet">
<metadata>
Created by potrace 1.14, written by Peter Selinger 2001-2017
</metadata>
<g transform="translate(0.000000,260.000000) scale(0.100000,-0.100000)"
fill="#000000" stroke="none">
<path d="M320 2578 c-156 -49 -275 -179 -309 -336 -14 -69 -16 -1794 -1 -1873
13 -70 36 -122 81 -185 63 -86 159 -148 269 -173 30 -7 359 -10 970 -8 l925 2
78 37 c130 62 216 165 252 305 23 89 22 1837 -2 1915 -49 165 -163 279 -326
323 -43 11 -212 14 -962 14 -890 0 -911 -1 -975 -21z"/>
</g>
</svg>
